# xmcd
#
# Track frame offsets: 
#        150
#        13102
#        25917
#        36405
#        46907
#        57407
#        72015
#        80362
#        90915
#        105835
#        130032
#        143285
#        152905
#        162585
#        175750
#        185165
#        194832
#        211010
#        230905
#        244290
#        269255
#        278372
#        292345
#        305730
#        312825
#
# Disc length: 4299 seconds
#
# Revision: 2
# Processed by: cddbd v1.5.2PL0 Copyright (c) Steve Scherf et al.
# Submitted via: ExactAudioCopy v1.0b2
#
DISCID=6410c919
DTITLE=Various Artist - World's Most Loved Christmas Classics
DYEAR=1991
DGENRE=Christmas
TTITLE0=Arthur Fiedler and The Boston Pops Orchestra - Sleigh Ride
TTITLE1=Elvis Presley - O Come All Ye Faithful
TTITLE2=Nat "King" Cole - O Little Town Of Bethlehem
TTITLE3=Eddy Arnold - Jolly Old St. Nicholas
TTITLE4=Julie Andrews - My Favorite Things
TTITLE5=John Gary - Have Yourself A Merry Little Christmas
TTITLE6=New Symphony Orchestra - Dance of the Sugar Plum Fairies
TTITLE7=Dean Martin - Jingle Bells
TTITLE8=Roger Whittaker - The First Noel
TTITLE9=Connie Francis - The Twelve Days Of Christmas
TTITLE10=Perry Como - God Rest Ye Merry Gentlemen
TTITLE11=Floyd Cramer - Jingle Bell Rock
TTITLE12=Fireside Singers - We Three Kings of Orient Are
TTITLE13=Fireside Singers - Let It Snow, Let It Snow, Let It Snow
TTITLE14=George Beverly Shea - It Came Upon A Midnight Clear
TTITLE15=Fireside Singers - We Wish You A Merry Christmas
TTITLE16=Kate Smith - May The Good Lord Bless And Keep You
TTITLE17=Harry Belafonte - Mary's Little Boy Child
TTITLE18=Perry Como - There's No Place Like Home For The Holidays
TTITLE19=Roger Whittaker - Silent Night, Holy Night
TTITLE20=Nat "King" Cole - Away In A Manger
TTITLE21=Ambrosian Singers - Once In Royal David's City
TTITLE22=Jim Reeves - Silver Bells
TTITLE23=Vienna - O Tannenbaum
TTITLE24=Guy Lombardo - Auld Lang Syne
EXTD=Lovely collection of old Christmas classics
EXTT0=Arthur Fieldler and Boston Pops
EXTT1=Elvis Presley
EXTT2=Nat King Cole
EXTT3=Eddy Arnold
EXTT4=Julie Andrews
EXTT5=John Gary
EXTT6=New Symphony Orchestra
EXTT7=Dean Martin
EXTT8=Roger Whittaker
EXTT9=Connie Francis
EXTT10=Perry Como
EXTT11=Floyd Cramer
EXTT12=The Fireside Singers
EXTT13=The Fireside Singers
EXTT14=George Beverly Shea
EXTT15=The Fireside Singers
EXTT16=Kate Smith
EXTT17=Harry Belefonte
EXTT18=Perry Como
EXTT19=Roger Whittaker
EXTT20=Nat King Cole
EXTT21=Ambrosian Singers
EXTT22=Jim Reeves
EXTT23=Vienna Boys Choir
EXTT24=Guy Lombardo
PLAYORDER=
